<svg width="98" height="17" viewBox="0 0 98 17" fill="none" xmlns="http://www.w3.org/2000/svg">
<path d="M5.02834 16.513C4.78718 16.513 4.5182 16.4296 4.22139 16.2626C3.89211 16.0493 3.7066 15.7733 3.66486 15.4348C3.65559 15.3652 3.65095 15.298 3.65095 15.233C3.65095 14.9687 3.72515 14.6974 3.87356 14.4191C4.0266 14.1409 4.26081 13.9461 4.57617 13.8348C4.6782 13.7977 4.78486 13.7791 4.89617 13.7791C5.12341 13.7791 5.36689 13.858 5.6266 14.0157C6.01617 14.2893 6.21095 14.6626 6.21095 15.1357C6.21095 15.3768 6.1437 15.6296 6.00921 15.8939C5.87936 16.1583 5.65675 16.3461 5.34139 16.4574C5.24399 16.4945 5.13965 16.513 5.02834 16.513ZM7.7066 16.3043C7.47472 16.3043 7.23356 16.2232 6.98313 16.0609C6.6353 15.8012 6.46139 15.4603 6.46139 15.0383C6.46139 14.76 6.54023 14.4817 6.69791 14.2035C6.86023 13.9252 7.09907 13.7374 7.41443 13.64C7.50255 13.6122 7.5953 13.5983 7.69269 13.5983C7.93385 13.5983 8.19588 13.6887 8.47878 13.8696C8.84979 14.1478 9.0353 14.4864 9.0353 14.8852C9.0353 15.1728 8.94255 15.4487 8.75704 15.713C8.57617 15.982 8.32342 16.1652 7.99878 16.2626C7.90602 16.2904 7.80863 16.3043 7.7066 16.3043ZM1.6753 15.8174C1.40631 15.8174 1.08168 15.7409 0.701386 15.5878L0.464864 15.4696L0.325734 15.3583C1.11414 13.8464 1.71472 12.5014 2.12747 11.3235C2.54486 10.1409 2.7837 9.24812 2.84399 8.64522C2.9924 8.43652 3.2266 8.33217 3.5466 8.33217C3.8295 8.33217 4.11704 8.38087 4.40921 8.47826C4.70602 8.57565 4.93327 8.68464 5.09095 8.80522C5.0724 8.92116 5.04921 9.04406 5.02139 9.17391C4.9982 9.33623 4.9866 9.50087 4.9866 9.66783C4.9866 10.5722 5.2324 11.2516 5.72399 11.7061C5.99762 11.9612 6.28515 12.0887 6.5866 12.0887C6.85095 12.0887 7.08515 11.9357 7.28921 11.6296C7.60457 11.0962 7.79472 10.2104 7.85965 8.97217L7.88747 8.54783C7.89675 8.28348 7.91066 8.09101 7.92921 7.97043C8.29095 7.85449 8.61327 7.79652 8.89617 7.79652C9.67066 7.79652 10.0579 8.19072 10.0579 8.97913C10.0579 9.11362 10.0463 9.26203 10.0231 9.42435C9.83762 10.4586 9.35066 11.3559 8.56226 12.1165C7.89443 12.7194 7.09443 13.0209 6.16226 13.0209C5.21617 13.0209 4.52979 12.7217 4.10313 12.1235C3.77849 12.9675 3.44921 13.7165 3.1153 14.3704C2.78602 15.0243 2.50544 15.4441 2.27356 15.6296C2.12052 15.7548 1.9211 15.8174 1.6753 15.8174ZM3.7553 7.69913C3.25443 7.69913 2.88805 7.45101 2.65617 6.95478C2.56805 6.76 2.52399 6.55826 2.52399 6.34957C2.52399 6.21971 2.54023 6.08522 2.57269 5.94609C2.68399 5.59826 2.89965 5.34319 3.21965 5.18087C3.4237 5.0742 3.63008 5.02087 3.83878 5.02087C3.96399 5.02087 4.14255 5.05565 4.37443 5.12522C4.61095 5.19014 4.81965 5.43826 5.00052 5.86957C5.07008 6.05043 5.10486 6.2313 5.10486 6.41217C5.10486 6.54667 5.07472 6.72522 5.01443 6.94783C4.95878 7.1658 4.76863 7.36058 4.44399 7.53217C4.1982 7.64348 3.96863 7.69913 3.7553 7.69913ZM14.5083 11.7896C14.7402 11.4835 14.8817 11.0986 14.9327 10.6348C14.9883 10.171 14.9652 9.71884 14.8631 9.27826C14.7657 8.83768 14.6034 8.49913 14.3762 8.26261C14.1536 8.02145 13.8776 7.97275 13.5483 8.11652C13.3257 8.2371 13.1565 8.48058 13.0405 8.84696C12.9246 9.21333 12.8875 9.61449 12.9292 10.0504C12.971 10.4864 13.117 10.8713 13.3675 11.2052C13.6179 11.5391 13.9982 11.7339 14.5083 11.7896ZM14.0353 13C13.4695 13 12.9825 12.9119 12.5744 12.7357C12.171 12.5548 11.8324 12.309 11.5588 11.9983C11.044 11.3954 10.775 10.7484 10.7518 10.0574C10.7286 9.36174 10.9118 8.73797 11.3014 8.18609C11.691 7.62956 12.2428 7.25391 12.957 7.05913C13.6712 6.86435 14.5083 6.96174 15.4683 7.3513C16.2614 7.71768 16.7507 8.26029 16.9362 8.97913C17.1263 9.69797 17.1194 10.491 16.9153 11.3583C16.7112 12.2209 16.4167 13.0533 16.0318 13.8557C15.6469 14.6626 15.2759 15.3374 14.9188 15.88C14.5663 16.4226 14.3344 16.7287 14.2231 16.7983C14.0098 16.84 13.8266 16.8586 13.6736 16.8539C13.5205 16.8539 13.342 16.8377 13.1379 16.8052C13.124 16.8006 13.1078 16.7959 13.0892 16.7913C13.0057 16.782 12.9176 16.7681 12.8249 16.7496C12.7321 16.7357 12.6556 16.7194 12.5953 16.7009L12.1988 16.4852C12.3704 16.0771 12.5767 15.6991 12.8179 15.3513C12.9385 15.1612 13.0567 14.9687 13.1727 14.7739C13.233 14.6672 13.2979 14.5559 13.3675 14.44C13.502 14.2174 13.6295 13.9855 13.7501 13.7443C13.8753 13.5032 13.9704 13.2551 14.0353 13ZM18.2858 12.833C18.2347 12.6522 18.2139 12.1652 18.2232 11.3722C18.2324 10.5791 18.2579 9.68638 18.2997 8.69391C18.3461 7.70145 18.3994 6.81797 18.4597 6.04348C18.52 5.26899 18.5803 4.81217 18.6405 4.67304C19.0208 4.53391 19.3826 4.48522 19.7258 4.52696C20.0736 4.5687 20.3774 4.6429 20.6371 4.74957C20.702 5.06493 20.7205 5.67942 20.6927 6.59304C20.6695 7.50667 20.6255 8.48522 20.5605 9.5287C20.5003 10.5722 20.4469 11.4464 20.4005 12.1513C20.3774 12.4481 20.3611 12.68 20.3518 12.847C19.9252 12.9722 19.5565 13.0232 19.2458 13C18.9397 12.9768 18.6313 12.9258 18.3205 12.847C18.3066 12.8423 18.295 12.8377 18.2858 12.833ZM14.891 3.37913C14.9142 2.91536 15.0858 2.45391 15.4058 1.99478C15.7258 1.53565 16.0968 1.19942 16.5188 0.986087C17.1032 0.721739 17.6203 0.626667 18.0701 0.70087C18.52 0.770434 18.9211 0.935072 19.2736 1.19478C19.6261 1.45449 19.9507 1.73043 20.2475 2.02261C20.5675 2.35188 20.8759 2.60696 21.1727 2.78783C21.4742 2.9687 21.7849 2.97333 22.1049 2.80174C22.3924 2.61623 22.6243 2.3542 22.8005 2.01565C22.9768 1.67246 23.1275 1.32 23.2527 0.958261C23.3362 0.735652 23.4197 0.529275 23.5032 0.33913C23.9623 0.264928 24.3565 0.297391 24.6858 0.436522C25.015 0.575652 25.2794 0.786666 25.4788 1.06956C25.4046 1.44522 25.2469 1.84638 25.0058 2.27304C24.7692 2.69971 24.5605 3.02203 24.3797 3.24C23.9437 3.75014 23.4498 4.06319 22.8979 4.17913C22.3461 4.29507 21.7965 4.25797 21.2492 4.06783C20.702 3.87304 20.215 3.56696 19.7884 3.14956C19.1345 2.49565 18.6359 2.10841 18.2927 1.98783C17.9542 1.86725 17.6968 1.95304 17.5205 2.24522C17.3397 2.53739 17.1588 2.97565 16.9779 3.56C16.9547 3.6342 16.9292 3.70841 16.9014 3.78261C16.4887 3.89391 16.1084 3.90783 15.7605 3.82435C15.4081 3.74087 15.1182 3.59246 14.891 3.37913ZM31.0625 10.5625C31.0625 9.375 31.3438 8.46094 31.9062 7.82031C32.474 7.17969 33.2448 6.85938 34.2188 6.85938H36.0234H36.1797V7.01562L36.1875 8.38281V8.53906H36.0312H34.1797C33.7109 8.53906 33.3542 8.70312 33.1094 9.03125C32.8698 9.35417 32.7422 9.86458 32.7266 10.5625V10.8984H33.8203C34.5859 10.8984 35.1693 11.0573 35.5703 11.375C35.9766 11.6875 36.1797 12.1536 36.1797 12.7734V13C36.1797 14.1615 35.7917 15.0339 35.0156 15.6172C34.2448 16.2005 33.1068 16.4922 31.6016 16.4922H30.9453C29.3776 16.4922 28.1901 16.1172 27.3828 15.3672C26.5755 14.6172 26.1719 13.5026 26.1719 12.0234V8.82031V8.66406H26.3281H27.6719H27.8281V8.82031V12.0234C27.8281 12.9505 28.0833 13.6406 28.5938 14.0938C29.1094 14.5521 29.8932 14.7812 30.9453 14.7812H31.6016C33.5495 14.7812 34.5234 14.2344 34.5234 13.1406V13.0469C34.5234 12.8854 34.4714 12.7656 34.3672 12.6875C34.263 12.6094 34.0807 12.5703 33.8203 12.5703H32.5859C32.1016 12.5703 31.7266 12.4479 31.4609 12.2031C31.1953 11.9531 31.0625 11.5938 31.0625 11.125V10.5625ZM46.2578 13H46.1328C45.9557 13 45.7891 12.987 45.6328 12.9609C45.4818 12.9349 45.3333 12.8906 45.1875 12.8281C45.0469 12.7656 44.9193 12.7031 44.8047 12.6406C44.6901 12.5729 44.5651 12.4818 44.4297 12.3672C44.2943 12.2474 44.1771 12.1432 44.0781 12.0547C43.9844 11.9661 43.862 11.8464 43.7109 11.6953C43.4505 12.1068 43.0443 12.4271 42.4922 12.6562C41.9401 12.8854 41.2552 13 40.4375 13H37.5938H37.4375V12.8438V11.4375V11.2812H37.5938H40.4453C41.7161 11.2812 42.3516 11.0208 42.3516 10.5C42.3516 10.1562 42.112 9.70573 41.6328 9.14844L39.4453 6.625L39.3516 6.52344L39.4453 6.42188L40.3906 5.35938L40.5078 5.22656L40.625 5.35938L44.1094 9.45312C44.625 10.0521 45.0026 10.4766 45.2422 10.7266C45.487 10.9714 45.6667 11.125 45.7812 11.1875C45.8958 11.25 46.0312 11.2812 46.1875 11.2812H46.2578C46.388 11.2812 46.4531 11.5495 46.4531 12.0859V12.1719C46.4531 12.724 46.388 13 46.2578 13ZM52.5625 13H52.3984C51.862 13 51.4141 12.9219 51.0547 12.7656C50.6953 12.6094 50.3906 12.3672 50.1406 12.0391C49.849 12.3672 49.4922 12.6094 49.0703 12.7656C48.6484 12.9219 48.1302 13 47.5156 13H46.1797C46.0495 13 45.9844 12.724 45.9844 12.1719V12.0859C45.9844 11.5495 46.0495 11.2812 46.1797 11.2812H47.5547C48.1797 11.2812 48.6224 11.1719 48.8828 10.9531C49.1484 10.7344 49.2812 10.388 49.2812 9.91406V7.89844V7.74219H49.4375H50.7734H50.9297V7.89844V9.91406C50.9297 10.3984 51.0365 10.7474 51.25 10.9609C51.4635 11.1745 51.8438 11.2812 52.3906 11.2812H52.5625C52.6927 11.2812 52.7578 11.5495 52.7578 12.0859V12.1719C52.7578 12.724 52.6927 13 52.5625 13ZM48.4609 4.82812L49.6875 3.60156L50.9141 4.82812L49.6875 6.05469L48.4609 4.82812ZM52.4922 11.2812H54.0781C54.5938 11.2812 54.9583 11.1875 55.1719 11C55.3906 10.8073 55.5 10.4505 55.5 9.92969V7.63281V7.47656H55.6562H57.0156H57.1719V7.63281V9.9375C57.1719 10.9427 56.9089 11.7057 56.3828 12.2266C55.862 12.7422 55.0911 13 54.0703 13H52.4922C52.362 13 52.2969 12.724 52.2969 12.1719V12.0859C52.2969 11.5495 52.362 11.2812 52.4922 11.2812ZM53.0234 15.5859L54.25 14.3594L55.4766 15.5859L54.25 16.8125L53.0234 15.5859ZM70.1719 13C69.5469 13 69.0026 12.8776 68.5391 12.6328C68.0807 12.3828 67.737 12.0182 67.5078 11.5391H66.2109C65.0755 11.5391 64.2266 11.3307 63.6641 10.9141C63.1068 10.4974 62.8281 9.95052 62.8281 9.27344C62.8281 8.4974 63.1276 7.8724 63.7266 7.39844C64.3307 6.91927 65.2318 6.57031 66.4297 6.35156L66.7891 6.28906L66.7422 5.91406L66.7266 5.76562L66.875 5.74219L68.1094 5.54688L68.2656 5.52344L68.2891 5.6875L68.8203 10.1562C68.8984 10.5885 69.0469 10.8854 69.2656 11.0469C69.4844 11.2031 69.8151 11.2812 70.2578 11.2812H70.5312C70.6615 11.2812 70.7266 11.5495 70.7266 12.0859V12.1719C70.7266 12.724 70.6615 13 70.5312 13H70.1719ZM67.2109 9.875L66.9844 7.97656L66.6875 8.01562C66.2188 8.08333 65.8151 8.17448 65.4766 8.28906C65.138 8.40365 64.8776 8.53646 64.6953 8.6875C64.513 8.83854 64.4219 9 64.4219 9.17188C64.4219 9.41146 64.5521 9.58854 64.8125 9.70312C65.0781 9.81771 65.5052 9.875 66.0938 9.875H67.2109ZM73.6953 4.99219L74.8906 3.78906L76.0938 4.99219L74.8906 6.19531L73.6953 4.99219ZM70.8672 4.99219L72.0703 3.78906L73.2656 4.99219L72.0703 6.19531L70.8672 4.99219ZM77.375 13H77.2109C76.6745 13 76.224 12.9219 75.8594 12.7656C75.4948 12.6094 75.1927 12.3672 74.9531 12.0391C74.6667 12.3672 74.3099 12.6094 73.8828 12.7656C73.4609 12.9219 72.9427 13 72.3281 13H70.4453C70.3151 13 70.25 12.724 70.25 12.1719V12.0859C70.25 11.5495 70.3151 11.2812 70.4453 11.2812H72.3672C72.9922 11.2812 73.4349 11.1719 73.6953 10.9531C73.9609 10.7344 74.0938 10.388 74.0938 9.91406V7.89844V7.74219H74.25H75.5859H75.7422V7.89844V9.91406C75.7422 10.3984 75.849 10.7474 76.0625 10.9609C76.276 11.1745 76.6562 11.2812 77.2031 11.2812H77.375C77.5052 11.2812 77.5703 11.5495 77.5703 12.0859V12.1719C77.5703 12.724 77.5052 13 77.375 13ZM77.3047 11.2812H78.0469C78.625 11.2812 79.0521 11.1693 79.3281 10.9453C79.6042 10.7214 79.7422 10.3802 79.7422 9.92188V7.89062V7.73438H79.8984H81.2344H81.3906V7.89062L81.3984 9.9375C81.4036 10.401 81.5104 10.7422 81.7188 10.9609C81.9271 11.1745 82.2552 11.2812 82.7031 11.2812C83.125 11.2812 83.4375 11.1719 83.6406 10.9531C83.849 10.7344 83.9531 10.3932 83.9531 9.92969L83.9609 7.89062V7.73438H84.1172H85.4453H85.6016V7.89062L85.6094 9.91406C85.6146 10.3828 85.7188 10.7266 85.9219 10.9453C86.125 11.1641 86.4401 11.2734 86.8672 11.2734C87.2005 11.2734 87.4479 11.1693 87.6094 10.9609C87.7708 10.7526 87.8516 10.4141 87.8516 9.94531V7.64062V7.48438H88.0078H89.375H89.5312V7.64062V10.0078C89.5312 10.9453 89.3021 11.6797 88.8438 12.2109C88.3854 12.737 87.7422 13 86.9141 13C85.9922 13 85.2943 12.6771 84.8203 12.0312C84.3672 12.6771 83.651 13 82.6719 13C81.7865 13 81.0964 12.6693 80.6016 12.0078C80.0703 12.6693 79.2161 13 78.0391 13H77.3047C77.1745 13 77.1094 12.724 77.1094 12.1719V12.0859C77.1094 11.5495 77.1745 11.2812 77.3047 11.2812ZM93.7812 13H90.9375H90.7812V12.8438V11.4375V11.2812H90.9375H93.7891C95.0599 11.2812 95.6953 11.0208 95.6953 10.5C95.6953 10.151 95.4557 9.70052 94.9766 9.14844L92.7891 6.625L92.6953 6.52344L92.7891 6.42188L93.7344 5.35938L93.8516 5.22656L93.9688 5.35938L96.2969 8.07812C97.0156 8.92188 97.375 9.74479 97.375 10.5469C97.375 11.2812 97.0651 11.875 96.4453 12.3281C95.8255 12.776 94.9375 13 93.7812 13Z" fill="#E60023"/>
</svg>
